# xmcd CD database file
#
# Track frame offsets:
#	150
#	14846
#	27783
#	38087
#	51022
#	63017
#	76436
#	87855
#	98878
#	112097
#	124987
#	137373
#	150012
#	161335
#	172567
#	186190
#	199180
#	212454
#	223381
#	235705
#	246391
#	258303
#	266622
#	275927
#	286523
#
# Disc length: 3993 seconds
#
# Revision: 1
# Processed by: cddbd v1.5.1PL0 Copyright (c) Steve Scherf et al.
# Submitted via: CDex 1.51
#
DISCID=550f9719
DTITLE=Various Artist - All Time Top 100 #1 Country Classics Disc 3
DYEAR=1900
DGENRE=Country
TTITLE0=Marty Robbins - Don't Worry
TTITLE1=The Browns - The Three Bells
TTITLE2=Eddy Arnold - Anytime
TTITLE3=Spade Cooley - Shame On You
TTITLE4=Jim Reeves - Mexican Joe
TTITLE5=Claude King - Wolverton Mountain
TTITLE6=Sonny James - Young Love
TTITLE7=Faron Young - Hello Walls
TTITLE8=David Houston - Almost Persuaded
TTITLE9=Carl Smith - Let Old Mother Nature Have Her Way
TTITLE10=Eddy Arnold - Just A Little Lovin'
TTITLE11=Hank Snow - Rhumba Boogie
TTITLE12=Don Gibson - Oh Lonesome Me
TTITLE13=Carl Smith - Hey Joe!
TTITLE14=The Davis Sisters - I Forgot More Than You'll Ever Know
TTITLE15=Jim Reeves - Four Walls
TTITLE16=Hank Williams - Hey, Good Lookin'
TTITLE17=Carl Smith - Don't Just Stand There
TTITLE18=Gene Autry - At Mail Call Today
TTITLE19=Webb Pierce - Its Been So Long
TTITLE20=Hank Williams - Long Gone Lonesome Blues
TTITLE21=Johnny Cash - Guess Things Happen That Way
TTITLE22=The Everly Brothers - Wake Up Little Susie
TTITLE23=Connie Smith - Once a Day
TTITLE24=Marty Robbins - Devil Woman
EXTD=
EXTT0=
EXTT1=
EXTT2=
EXTT3=
EXTT4=
EXTT5=
EXTT6=
EXTT7=
EXTT8=
EXTT9=
EXTT10=
EXTT11=
EXTT12=
EXTT13=
EXTT14=
EXTT15=
EXTT16=
EXTT17=
EXTT18=
EXTT19=
EXTT20=
EXTT21=
EXTT22=
EXTT23=
EXTT24=
PLAYORDER=
